<svg xmlns="http://www.w3.org/2000/svg" version="1.1" xmlns:xlink="http://www.w3.org/1999/xlink" xmlns:svgjs="http://svgjs.dev/svgjs" width="1440" height="560" preserveAspectRatio="none" viewBox="0 0 1440 560"><g mask="url(&quot;#SvgjsMask1035&quot;)" fill="none"><rect width="1440" height="560" x="0" y="0" fill="rgba(251, 251, 251, 1)"></rect><path d="M0,388.233C71.756,381.258,105.255,296.188,160.85,250.288C208.285,211.126,263.703,185.785,302.765,138.268C352.025,78.345,432.001,16.073,415.739,-59.774C399.177,-137.023,286.086,-143.608,230.329,-199.581C180.279,-249.824,174.342,-342.913,108.202,-368.503C42.114,-394.072,-27.474,-345.082,-95.633,-325.695C-164.454,-306.12,-252.36,-312.85,-293.435,-254.263C-334.831,-195.218,-280.333,-113.058,-294.308,-42.315C-309.504,34.606,-403.229,98.359,-377.745,172.51C-352.882,244.854,-248.714,245.706,-182.286,283.642C-120.196,319.101,-71.167,395.151,0,388.233" fill="#cbcbcb"></path><path d="M1440 943.299C1514.374 948.494 1594.368 937.443 1652.853 891.2049999999999 1709.689 846.271 1715.43 765.406 1747.309 700.343 1780.314 632.98 1844.047 576.989 1843.561 501.977 1843.057 424.241 1790.271 358.957 1744.689 295.985 1695.316 227.776 1648.83 147.59199999999998 1568.581 122.09300000000002 1487.953 96.47300000000001 1396.515 119.91399999999999 1323.148 162.039 1256.848 200.106 1235.833 281.963 1187.286 341.022 1140.4270000000001 398.027 1071.182 434.735 1042.944 502.912 1010.149 582.091 974.45 678.727 1016.48 753.415 1058.814 828.644 1166.6680000000001 827.433 1245.436 862.748 1310.81 892.058 1368.53 938.307 1440 943.299" fill="#ffffff"></path></g><defs><mask id="SvgjsMask1035"><rect width="1440" height="560" fill="#ffffff"></rect></mask></defs></svg>